<?xml version="1.0" encoding="UTF-8" standalone="no"?>
<!DOCTYPE svg PUBLIC "-//W3C//DTD SVG 1.1//EN"
 "http://www.w3.org/Graphics/SVG/1.1/DTD/svg11.dtd">
<!-- Generated by graphviz version 2.47.3 (20210619.1520)
 -->
<!-- Title: dependencies Pages: 1 -->
<svg width="312pt" height="174pt"
 viewBox="0.00 0.00 312.00 173.80" xmlns="http://www.w3.org/2000/svg" xmlns:xlink="http://www.w3.org/1999/xlink">
<g id="graph0" class="graph" transform="scale(1 1) rotate(0) translate(4 169.8)">
<title>dependencies</title>
<polygon fill="white" stroke="transparent" points="-4,4 -4,-169.8 308,-169.8 308,4 -4,4"/>
<text text-anchor="middle" x="152" y="-8.2" font-family="sans-serif" font-size="14.00">dependencies</text>
<g id="clust1" class="cluster">
<title>cluster_Tab1PageModule</title>
<polygon fill="none" stroke="black" stroke-dasharray="1,5" points="8,-32.8 8,-157.8 296,-157.8 296,-32.8 8,-32.8"/>
</g>
<g id="clust4" class="cluster">
<title>cluster_Tab1PageModule_imports</title>
<polygon fill="none" stroke="black" points="112,-40.8 112,-92.8 288,-92.8 288,-40.8 112,-40.8"/>
</g>
<g id="clust2" class="cluster">
<title>cluster_Tab1PageModule_declarations</title>
<polygon fill="none" stroke="black" points="16,-40.8 16,-92.8 104,-92.8 104,-40.8 16,-40.8"/>
</g>
<!-- Tab1Page -->
<g id="node1" class="node">
<title>Tab1Page</title>
<polygon fill="#ffffb3" stroke="black" points="95.98,-84.8 24.02,-84.8 24.02,-48.8 95.98,-48.8 95.98,-84.8"/>
<text text-anchor="middle" x="60" y="-62.6" font-family="Times,serif" font-size="14.00">Tab1Page</text>
</g>
<!-- Tab1PageModule -->
<g id="node2" class="node">
<title>Tab1PageModule</title>
<polygon fill="#8dd3c7" stroke="black" points="194.53,-149.8 191.53,-153.8 170.53,-153.8 167.53,-149.8 79.47,-149.8 79.47,-113.8 194.53,-113.8 194.53,-149.8"/>
<text text-anchor="middle" x="137" y="-127.6" font-family="Times,serif" font-size="14.00">Tab1PageModule</text>
</g>
<!-- Tab1Page&#45;&gt;Tab1PageModule -->
<g id="edge1" class="edge">
<title>Tab1Page&#45;&gt;Tab1PageModule</title>
<path fill="none" stroke="black" d="M87.61,-84.91C87.61,-84.91 87.61,-103.79 87.61,-103.79"/>
<polygon fill="black" stroke="black" points="84.11,-103.79 87.61,-113.79 91.11,-103.79 84.11,-103.79"/>
</g>
<!-- Tab1PageRoutingModule -->
<g id="node3" class="node">
<title>Tab1PageRoutingModule</title>
<polygon fill="#8dd3c7" stroke="black" points="280.15,-84.8 277.15,-88.8 256.15,-88.8 253.15,-84.8 119.85,-84.8 119.85,-48.8 280.15,-48.8 280.15,-84.8"/>
<text text-anchor="middle" x="200" y="-62.6" font-family="Times,serif" font-size="14.00">Tab1PageRoutingModule</text>
</g>
<!-- Tab1PageRoutingModule&#45;&gt;Tab1PageModule -->
<g id="edge2" class="edge">
<title>Tab1PageRoutingModule&#45;&gt;Tab1PageModule</title>
<path fill="none" stroke="black" d="M157.22,-84.91C157.22,-84.91 157.22,-103.79 157.22,-103.79"/>
<polygon fill="black" stroke="black" points="153.72,-103.79 157.22,-113.79 160.72,-103.79 153.72,-103.79"/>
</g>
</g>
</svg>
