<?xml version="1.0" encoding="UTF-8" standalone="no"?>
<!DOCTYPE svg PUBLIC "-//W3C//DTD SVG 1.1//EN"
 "http://www.w3.org/Graphics/SVG/1.1/DTD/svg11.dtd">
<!-- Generated by graphviz version 2.47.3 (20210619.1520)
 -->
<!-- Title: dependencies Pages: 1 -->
<svg width="310pt" height="174pt"
 viewBox="0.00 0.00 310.00 173.80" xmlns="http://www.w3.org/2000/svg" xmlns:xlink="http://www.w3.org/1999/xlink">
<g id="graph0" class="graph" transform="scale(1 1) rotate(0) translate(4 169.8)">
<title>dependencies</title>
<polygon fill="white" stroke="transparent" points="-4,4 -4,-169.8 306,-169.8 306,4 -4,4"/>
<text text-anchor="middle" x="151" y="-8.2" font-family="sans-serif" font-size="14.00">dependencies</text>
<g id="clust1" class="cluster">
<title>cluster_TabsPageModule</title>
<polygon fill="none" stroke="black" stroke-dasharray="1,5" points="8,-32.8 8,-157.8 294,-157.8 294,-32.8 8,-32.8"/>
</g>
<g id="clust4" class="cluster">
<title>cluster_TabsPageModule_imports</title>
<polygon fill="none" stroke="black" points="110,-40.8 110,-92.8 286,-92.8 286,-40.8 110,-40.8"/>
</g>
<g id="clust2" class="cluster">
<title>cluster_TabsPageModule_declarations</title>
<polygon fill="none" stroke="black" points="16,-40.8 16,-92.8 102,-92.8 102,-40.8 16,-40.8"/>
</g>
<!-- TabsPage -->
<g id="node1" class="node">
<title>TabsPage</title>
<polygon fill="#ffffb3" stroke="black" points="94.42,-84.8 23.58,-84.8 23.58,-48.8 94.42,-48.8 94.42,-84.8"/>
<text text-anchor="middle" x="59" y="-62.6" font-family="Times,serif" font-size="14.00">TabsPage</text>
</g>
<!-- TabsPageModule -->
<g id="node2" class="node">
<title>TabsPageModule</title>
<polygon fill="#8dd3c7" stroke="black" points="191.97,-149.8 188.97,-153.8 167.97,-153.8 164.97,-149.8 78.03,-149.8 78.03,-113.8 191.97,-113.8 191.97,-149.8"/>
<text text-anchor="middle" x="135" y="-127.6" font-family="Times,serif" font-size="14.00">TabsPageModule</text>
</g>
<!-- TabsPage&#45;&gt;TabsPageModule -->
<g id="edge1" class="edge">
<title>TabsPage&#45;&gt;TabsPageModule</title>
<path fill="none" stroke="black" d="M86.11,-84.91C86.11,-84.91 86.11,-103.79 86.11,-103.79"/>
<polygon fill="black" stroke="black" points="82.61,-103.79 86.11,-113.79 89.61,-103.79 82.61,-103.79"/>
</g>
<!-- TabsPageRoutingModule -->
<g id="node3" class="node">
<title>TabsPageRoutingModule</title>
<polygon fill="#8dd3c7" stroke="black" points="277.59,-84.8 274.59,-88.8 253.59,-88.8 250.59,-84.8 118.41,-84.8 118.41,-48.8 277.59,-48.8 277.59,-84.8"/>
<text text-anchor="middle" x="198" y="-62.6" font-family="Times,serif" font-size="14.00">TabsPageRoutingModule</text>
</g>
<!-- TabsPageRoutingModule&#45;&gt;TabsPageModule -->
<g id="edge2" class="edge">
<title>TabsPageRoutingModule&#45;&gt;TabsPageModule</title>
<path fill="none" stroke="black" d="M155.22,-84.91C155.22,-84.91 155.22,-103.79 155.22,-103.79"/>
<polygon fill="black" stroke="black" points="151.72,-103.79 155.22,-113.79 158.72,-103.79 151.72,-103.79"/>
</g>
</g>
</svg>
