<?xml version="1.0" encoding="UTF-8" standalone="no"?>
<!DOCTYPE svg PUBLIC "-//W3C//DTD SVG 1.1//EN"
 "http://www.w3.org/Graphics/SVG/1.1/DTD/svg11.dtd">
<!-- Generated by graphviz version 2.47.3 (20210619.1520)
 -->
<!-- Title: dependencies Pages: 1 -->
<svg width="2040pt" height="247pt"
 viewBox="0.00 0.00 2040.00 246.80" xmlns="http://www.w3.org/2000/svg" xmlns:xlink="http://www.w3.org/1999/xlink">
<g id="graph0" class="graph" transform="scale(1 1) rotate(0) translate(4 242.8)">
<title>dependencies</title>
<polygon fill="white" stroke="transparent" points="-4,4 -4,-242.8 2036,-242.8 2036,4 -4,4"/>
<text text-anchor="middle" x="1016" y="-8.2" font-family="sans-serif" font-size="14.00">dependencies</text>
<g id="clust1" class="cluster">
<title>cluster_AppModule</title>
<polygon fill="none" stroke="black" stroke-dasharray="1,5" points="8,-32.8 8,-230.8 298,-230.8 298,-32.8 8,-32.8"/>
</g>
<g id="clust2" class="cluster">
<title>cluster_AppModule_declarations</title>
<polygon fill="none" stroke="black" points="168,-40.8 168,-92.8 290,-92.8 290,-40.8 168,-40.8"/>
</g>
<g id="clust4" class="cluster">
<title>cluster_AppModule_imports</title>
<polygon fill="none" stroke="black" points="16,-40.8 16,-92.8 160,-92.8 160,-40.8 16,-40.8"/>
</g>
<g id="clust6" class="cluster">
<title>cluster_AppModule_bootstrap</title>
<polygon fill="none" stroke="black" points="96,-170.8 96,-222.8 220,-222.8 220,-170.8 96,-170.8"/>
</g>
<g id="clust14" class="cluster">
<title>cluster_ExploreContainerComponentModule</title>
<polygon fill="none" stroke="black" stroke-dasharray="1,5" points="306,-32.8 306,-230.8 546,-230.8 546,-32.8 306,-32.8"/>
</g>
<g id="clust15" class="cluster">
<title>cluster_ExploreContainerComponentModule_declarations</title>
<polygon fill="none" stroke="black" points="328,-40.8 328,-92.8 524,-92.8 524,-40.8 328,-40.8"/>
</g>
<g id="clust18" class="cluster">
<title>cluster_ExploreContainerComponentModule_exports</title>
<polygon fill="none" stroke="black" points="326,-170.8 326,-222.8 526,-222.8 526,-170.8 326,-170.8"/>
</g>
<g id="clust21" class="cluster">
<title>cluster_Tab1PageModule</title>
<polygon fill="none" stroke="black" stroke-dasharray="1,5" points="554,-32.8 554,-157.8 842,-157.8 842,-32.8 554,-32.8"/>
</g>
<g id="clust22" class="cluster">
<title>cluster_Tab1PageModule_declarations</title>
<polygon fill="none" stroke="black" points="746,-40.8 746,-92.8 834,-92.8 834,-40.8 746,-40.8"/>
</g>
<g id="clust24" class="cluster">
<title>cluster_Tab1PageModule_imports</title>
<polygon fill="none" stroke="black" points="562,-40.8 562,-92.8 738,-92.8 738,-40.8 562,-40.8"/>
</g>
<g id="clust34" class="cluster">
<title>cluster_Tab2PageModule</title>
<polygon fill="none" stroke="black" stroke-dasharray="1,5" points="850,-32.8 850,-157.8 1138,-157.8 1138,-32.8 850,-32.8"/>
</g>
<g id="clust35" class="cluster">
<title>cluster_Tab2PageModule_declarations</title>
<polygon fill="none" stroke="black" points="1042,-40.8 1042,-92.8 1130,-92.8 1130,-40.8 1042,-40.8"/>
</g>
<g id="clust37" class="cluster">
<title>cluster_Tab2PageModule_imports</title>
<polygon fill="none" stroke="black" points="858,-40.8 858,-92.8 1034,-92.8 1034,-40.8 858,-40.8"/>
</g>
<g id="clust47" class="cluster">
<title>cluster_Tab3PageModule</title>
<polygon fill="none" stroke="black" stroke-dasharray="1,5" points="1146,-32.8 1146,-157.8 1434,-157.8 1434,-32.8 1146,-32.8"/>
</g>
<g id="clust48" class="cluster">
<title>cluster_Tab3PageModule_declarations</title>
<polygon fill="none" stroke="black" points="1338,-40.8 1338,-92.8 1426,-92.8 1426,-40.8 1338,-40.8"/>
</g>
<g id="clust50" class="cluster">
<title>cluster_Tab3PageModule_imports</title>
<polygon fill="none" stroke="black" points="1154,-40.8 1154,-92.8 1330,-92.8 1330,-40.8 1154,-40.8"/>
</g>
<g id="clust60" class="cluster">
<title>cluster_Tab4PageModule</title>
<polygon fill="none" stroke="black" stroke-dasharray="1,5" points="1442,-32.8 1442,-157.8 1730,-157.8 1730,-32.8 1442,-32.8"/>
</g>
<g id="clust61" class="cluster">
<title>cluster_Tab4PageModule_declarations</title>
<polygon fill="none" stroke="black" points="1634,-40.8 1634,-92.8 1722,-92.8 1722,-40.8 1634,-40.8"/>
</g>
<g id="clust63" class="cluster">
<title>cluster_Tab4PageModule_imports</title>
<polygon fill="none" stroke="black" points="1450,-40.8 1450,-92.8 1626,-92.8 1626,-40.8 1450,-40.8"/>
</g>
<g id="clust73" class="cluster">
<title>cluster_TabsPageModule</title>
<polygon fill="none" stroke="black" stroke-dasharray="1,5" points="1738,-32.8 1738,-157.8 2024,-157.8 2024,-32.8 1738,-32.8"/>
</g>
<g id="clust74" class="cluster">
<title>cluster_TabsPageModule_declarations</title>
<polygon fill="none" stroke="black" points="1930,-40.8 1930,-92.8 2016,-92.8 2016,-40.8 1930,-40.8"/>
</g>
<g id="clust76" class="cluster">
<title>cluster_TabsPageModule_imports</title>
<polygon fill="none" stroke="black" points="1746,-40.8 1746,-92.8 1922,-92.8 1922,-40.8 1746,-40.8"/>
</g>
<!-- AppComponent -->
<g id="node1" class="node">
<title>AppComponent</title>
<polygon fill="#ffffb3" stroke="black" points="281.94,-84.8 176.06,-84.8 176.06,-48.8 281.94,-48.8 281.94,-84.8"/>
<text text-anchor="middle" x="229" y="-62.6" font-family="Times,serif" font-size="14.00">AppComponent</text>
</g>
<!-- AppModule -->
<g id="node2" class="node">
<title>AppModule</title>
<polygon fill="#8dd3c7" stroke="black" points="199.66,-149.8 196.66,-153.8 175.66,-153.8 172.66,-149.8 116.34,-149.8 116.34,-113.8 199.66,-113.8 199.66,-149.8"/>
<text text-anchor="middle" x="158" y="-127.6" font-family="Times,serif" font-size="14.00">AppModule</text>
</g>
<!-- AppComponent&#45;&gt;AppModule -->
<g id="edge1" class="edge">
<title>AppComponent&#45;&gt;AppModule</title>
<path fill="none" stroke="black" d="M188.05,-84.91C188.05,-84.91 188.05,-103.79 188.05,-103.79"/>
<polygon fill="black" stroke="black" points="184.55,-103.79 188.05,-113.79 191.55,-103.79 184.55,-103.79"/>
</g>
<!-- AppComponent  -->
<g id="node4" class="node">
<title>AppComponent </title>
<polygon fill="#80b1d3" stroke="black" points="212.44,-214.8 103.56,-214.8 103.56,-178.8 212.44,-178.8 212.44,-214.8"/>
<text text-anchor="middle" x="158" y="-192.6" font-family="Times,serif" font-size="14.00">AppComponent </text>
</g>
<!-- AppModule&#45;&gt;AppComponent  -->
<g id="edge3" class="edge">
<title>AppModule&#45;&gt;AppComponent </title>
<path fill="none" stroke="black" stroke-dasharray="1,5" d="M158,-149.91C158,-149.91 158,-168.79 158,-168.79"/>
<polygon fill="black" stroke="black" points="154.5,-168.79 158,-178.79 161.5,-168.79 154.5,-168.79"/>
</g>
<!-- AppRoutingModule -->
<g id="node3" class="node">
<title>AppRoutingModule</title>
<polygon fill="#8dd3c7" stroke="black" points="152.27,-84.8 149.27,-88.8 128.27,-88.8 125.27,-84.8 23.73,-84.8 23.73,-48.8 152.27,-48.8 152.27,-84.8"/>
<text text-anchor="middle" x="88" y="-62.6" font-family="Times,serif" font-size="14.00">AppRoutingModule</text>
</g>
<!-- AppRoutingModule&#45;&gt;AppModule -->
<g id="edge2" class="edge">
<title>AppRoutingModule&#45;&gt;AppModule</title>
<path fill="none" stroke="black" d="M134.28,-84.91C134.28,-84.91 134.28,-103.79 134.28,-103.79"/>
<polygon fill="black" stroke="black" points="130.78,-103.79 134.28,-113.79 137.78,-103.79 130.78,-103.79"/>
</g>
<!-- ExploreContainerComponent -->
<g id="node5" class="node">
<title>ExploreContainerComponent</title>
<polygon fill="#ffffb3" stroke="black" points="516.36,-84.8 335.64,-84.8 335.64,-48.8 516.36,-48.8 516.36,-84.8"/>
<text text-anchor="middle" x="426" y="-62.6" font-family="Times,serif" font-size="14.00">ExploreContainerComponent</text>
</g>
<!-- ExploreContainerComponentModule -->
<g id="node6" class="node">
<title>ExploreContainerComponentModule</title>
<polygon fill="#8dd3c7" stroke="black" points="538.41,-149.8 535.41,-153.8 514.41,-153.8 511.41,-149.8 313.59,-149.8 313.59,-113.8 538.41,-113.8 538.41,-149.8"/>
<text text-anchor="middle" x="426" y="-127.6" font-family="Times,serif" font-size="14.00">ExploreContainerComponentModule</text>
</g>
<!-- ExploreContainerComponent&#45;&gt;ExploreContainerComponentModule -->
<g id="edge4" class="edge">
<title>ExploreContainerComponent&#45;&gt;ExploreContainerComponentModule</title>
<path fill="none" stroke="black" d="M426,-84.91C426,-84.91 426,-103.79 426,-103.79"/>
<polygon fill="black" stroke="black" points="422.5,-103.79 426,-113.79 429.5,-103.79 422.5,-103.79"/>
</g>
<!-- ExploreContainerComponent  -->
<g id="node7" class="node">
<title>ExploreContainerComponent </title>
<polygon fill="#fb8072" stroke="black" points="518.36,-214.8 333.64,-214.8 333.64,-178.8 518.36,-178.8 518.36,-214.8"/>
<text text-anchor="middle" x="426" y="-192.6" font-family="Times,serif" font-size="14.00">ExploreContainerComponent </text>
</g>
<!-- ExploreContainerComponentModule&#45;&gt;ExploreContainerComponent  -->
<g id="edge5" class="edge">
<title>ExploreContainerComponentModule&#45;&gt;ExploreContainerComponent </title>
<path fill="none" stroke="black" stroke-dasharray="5,2" d="M426,-149.91C426,-149.91 426,-168.79 426,-168.79"/>
<polygon fill="black" stroke="black" points="422.5,-168.79 426,-178.79 429.5,-168.79 422.5,-168.79"/>
</g>
<!-- Tab1Page -->
<g id="node8" class="node">
<title>Tab1Page</title>
<polygon fill="#ffffb3" stroke="black" points="825.98,-84.8 754.02,-84.8 754.02,-48.8 825.98,-48.8 825.98,-84.8"/>
<text text-anchor="middle" x="790" y="-62.6" font-family="Times,serif" font-size="14.00">Tab1Page</text>
</g>
<!-- Tab1PageModule -->
<g id="node9" class="node">
<title>Tab1PageModule</title>
<polygon fill="#8dd3c7" stroke="black" points="770.53,-149.8 767.53,-153.8 746.53,-153.8 743.53,-149.8 655.47,-149.8 655.47,-113.8 770.53,-113.8 770.53,-149.8"/>
<text text-anchor="middle" x="713" y="-127.6" font-family="Times,serif" font-size="14.00">Tab1PageModule</text>
</g>
<!-- Tab1Page&#45;&gt;Tab1PageModule -->
<g id="edge6" class="edge">
<title>Tab1Page&#45;&gt;Tab1PageModule</title>
<path fill="none" stroke="black" d="M762.39,-84.91C762.39,-84.91 762.39,-103.79 762.39,-103.79"/>
<polygon fill="black" stroke="black" points="758.89,-103.79 762.39,-113.79 765.89,-103.79 758.89,-103.79"/>
</g>
<!-- Tab1PageRoutingModule -->
<g id="node10" class="node">
<title>Tab1PageRoutingModule</title>
<polygon fill="#8dd3c7" stroke="black" points="730.15,-84.8 727.15,-88.8 706.15,-88.8 703.15,-84.8 569.85,-84.8 569.85,-48.8 730.15,-48.8 730.15,-84.8"/>
<text text-anchor="middle" x="650" y="-62.6" font-family="Times,serif" font-size="14.00">Tab1PageRoutingModule</text>
</g>
<!-- Tab1PageRoutingModule&#45;&gt;Tab1PageModule -->
<g id="edge7" class="edge">
<title>Tab1PageRoutingModule&#45;&gt;Tab1PageModule</title>
<path fill="none" stroke="black" d="M692.78,-84.91C692.78,-84.91 692.78,-103.79 692.78,-103.79"/>
<polygon fill="black" stroke="black" points="689.28,-103.79 692.78,-113.79 696.28,-103.79 689.28,-103.79"/>
</g>
<!-- Tab2Page -->
<g id="node11" class="node">
<title>Tab2Page</title>
<polygon fill="#ffffb3" stroke="black" points="1121.98,-84.8 1050.02,-84.8 1050.02,-48.8 1121.98,-48.8 1121.98,-84.8"/>
<text text-anchor="middle" x="1086" y="-62.6" font-family="Times,serif" font-size="14.00">Tab2Page</text>
</g>
<!-- Tab2PageModule -->
<g id="node12" class="node">
<title>Tab2PageModule</title>
<polygon fill="#8dd3c7" stroke="black" points="1066.53,-149.8 1063.53,-153.8 1042.53,-153.8 1039.53,-149.8 951.47,-149.8 951.47,-113.8 1066.53,-113.8 1066.53,-149.8"/>
<text text-anchor="middle" x="1009" y="-127.6" font-family="Times,serif" font-size="14.00">Tab2PageModule</text>
</g>
<!-- Tab2Page&#45;&gt;Tab2PageModule -->
<g id="edge8" class="edge">
<title>Tab2Page&#45;&gt;Tab2PageModule</title>
<path fill="none" stroke="black" d="M1058.39,-84.91C1058.39,-84.91 1058.39,-103.79 1058.39,-103.79"/>
<polygon fill="black" stroke="black" points="1054.89,-103.79 1058.39,-113.79 1061.89,-103.79 1054.89,-103.79"/>
</g>
<!-- Tab2PageRoutingModule -->
<g id="node13" class="node">
<title>Tab2PageRoutingModule</title>
<polygon fill="#8dd3c7" stroke="black" points="1026.15,-84.8 1023.15,-88.8 1002.15,-88.8 999.15,-84.8 865.85,-84.8 865.85,-48.8 1026.15,-48.8 1026.15,-84.8"/>
<text text-anchor="middle" x="946" y="-62.6" font-family="Times,serif" font-size="14.00">Tab2PageRoutingModule</text>
</g>
<!-- Tab2PageRoutingModule&#45;&gt;Tab2PageModule -->
<g id="edge9" class="edge">
<title>Tab2PageRoutingModule&#45;&gt;Tab2PageModule</title>
<path fill="none" stroke="black" d="M988.78,-84.91C988.78,-84.91 988.78,-103.79 988.78,-103.79"/>
<polygon fill="black" stroke="black" points="985.28,-103.79 988.78,-113.79 992.28,-103.79 985.28,-103.79"/>
</g>
<!-- Tab3Page -->
<g id="node14" class="node">
<title>Tab3Page</title>
<polygon fill="#ffffb3" stroke="black" points="1417.98,-84.8 1346.02,-84.8 1346.02,-48.8 1417.98,-48.8 1417.98,-84.8"/>
<text text-anchor="middle" x="1382" y="-62.6" font-family="Times,serif" font-size="14.00">Tab3Page</text>
</g>
<!-- Tab3PageModule -->
<g id="node15" class="node">
<title>Tab3PageModule</title>
<polygon fill="#8dd3c7" stroke="black" points="1362.53,-149.8 1359.53,-153.8 1338.53,-153.8 1335.53,-149.8 1247.47,-149.8 1247.47,-113.8 1362.53,-113.8 1362.53,-149.8"/>
<text text-anchor="middle" x="1305" y="-127.6" font-family="Times,serif" font-size="14.00">Tab3PageModule</text>
</g>
<!-- Tab3Page&#45;&gt;Tab3PageModule -->
<g id="edge10" class="edge">
<title>Tab3Page&#45;&gt;Tab3PageModule</title>
<path fill="none" stroke="black" d="M1354.39,-84.91C1354.39,-84.91 1354.39,-103.79 1354.39,-103.79"/>
<polygon fill="black" stroke="black" points="1350.89,-103.79 1354.39,-113.79 1357.89,-103.79 1350.89,-103.79"/>
</g>
<!-- Tab3PageRoutingModule -->
<g id="node16" class="node">
<title>Tab3PageRoutingModule</title>
<polygon fill="#8dd3c7" stroke="black" points="1322.15,-84.8 1319.15,-88.8 1298.15,-88.8 1295.15,-84.8 1161.85,-84.8 1161.85,-48.8 1322.15,-48.8 1322.15,-84.8"/>
<text text-anchor="middle" x="1242" y="-62.6" font-family="Times,serif" font-size="14.00">Tab3PageRoutingModule</text>
</g>
<!-- Tab3PageRoutingModule&#45;&gt;Tab3PageModule -->
<g id="edge11" class="edge">
<title>Tab3PageRoutingModule&#45;&gt;Tab3PageModule</title>
<path fill="none" stroke="black" d="M1284.78,-84.91C1284.78,-84.91 1284.78,-103.79 1284.78,-103.79"/>
<polygon fill="black" stroke="black" points="1281.28,-103.79 1284.78,-113.79 1288.28,-103.79 1281.28,-103.79"/>
</g>
<!-- Tab4Page -->
<g id="node17" class="node">
<title>Tab4Page</title>
<polygon fill="#ffffb3" stroke="black" points="1713.98,-84.8 1642.02,-84.8 1642.02,-48.8 1713.98,-48.8 1713.98,-84.8"/>
<text text-anchor="middle" x="1678" y="-62.6" font-family="Times,serif" font-size="14.00">Tab4Page</text>
</g>
<!-- Tab4PageModule -->
<g id="node18" class="node">
<title>Tab4PageModule</title>
<polygon fill="#8dd3c7" stroke="black" points="1658.53,-149.8 1655.53,-153.8 1634.53,-153.8 1631.53,-149.8 1543.47,-149.8 1543.47,-113.8 1658.53,-113.8 1658.53,-149.8"/>
<text text-anchor="middle" x="1601" y="-127.6" font-family="Times,serif" font-size="14.00">Tab4PageModule</text>
</g>
<!-- Tab4Page&#45;&gt;Tab4PageModule -->
<g id="edge12" class="edge">
<title>Tab4Page&#45;&gt;Tab4PageModule</title>
<path fill="none" stroke="black" d="M1650.39,-84.91C1650.39,-84.91 1650.39,-103.79 1650.39,-103.79"/>
<polygon fill="black" stroke="black" points="1646.89,-103.79 1650.39,-113.79 1653.89,-103.79 1646.89,-103.79"/>
</g>
<!-- Tab4PageRoutingModule -->
<g id="node19" class="node">
<title>Tab4PageRoutingModule</title>
<polygon fill="#8dd3c7" stroke="black" points="1618.15,-84.8 1615.15,-88.8 1594.15,-88.8 1591.15,-84.8 1457.85,-84.8 1457.85,-48.8 1618.15,-48.8 1618.15,-84.8"/>
<text text-anchor="middle" x="1538" y="-62.6" font-family="Times,serif" font-size="14.00">Tab4PageRoutingModule</text>
</g>
<!-- Tab4PageRoutingModule&#45;&gt;Tab4PageModule -->
<g id="edge13" class="edge">
<title>Tab4PageRoutingModule&#45;&gt;Tab4PageModule</title>
<path fill="none" stroke="black" d="M1580.78,-84.91C1580.78,-84.91 1580.78,-103.79 1580.78,-103.79"/>
<polygon fill="black" stroke="black" points="1577.28,-103.79 1580.78,-113.79 1584.28,-103.79 1577.28,-103.79"/>
</g>
<!-- TabsPage -->
<g id="node20" class="node">
<title>TabsPage</title>
<polygon fill="#ffffb3" stroke="black" points="2008.42,-84.8 1937.58,-84.8 1937.58,-48.8 2008.42,-48.8 2008.42,-84.8"/>
<text text-anchor="middle" x="1973" y="-62.6" font-family="Times,serif" font-size="14.00">TabsPage</text>
</g>
<!-- TabsPageModule -->
<g id="node21" class="node">
<title>TabsPageModule</title>
<polygon fill="#8dd3c7" stroke="black" points="1952.97,-149.8 1949.97,-153.8 1928.97,-153.8 1925.97,-149.8 1839.03,-149.8 1839.03,-113.8 1952.97,-113.8 1952.97,-149.8"/>
<text text-anchor="middle" x="1896" y="-127.6" font-family="Times,serif" font-size="14.00">TabsPageModule</text>
</g>
<!-- TabsPage&#45;&gt;TabsPageModule -->
<g id="edge14" class="edge">
<title>TabsPage&#45;&gt;TabsPageModule</title>
<path fill="none" stroke="black" d="M1945.39,-84.91C1945.39,-84.91 1945.39,-103.79 1945.39,-103.79"/>
<polygon fill="black" stroke="black" points="1941.89,-103.79 1945.39,-113.79 1948.89,-103.79 1941.89,-103.79"/>
</g>
<!-- TabsPageRoutingModule -->
<g id="node22" class="node">
<title>TabsPageRoutingModule</title>
<polygon fill="#8dd3c7" stroke="black" points="1913.59,-84.8 1910.59,-88.8 1889.59,-88.8 1886.59,-84.8 1754.41,-84.8 1754.41,-48.8 1913.59,-48.8 1913.59,-84.8"/>
<text text-anchor="middle" x="1834" y="-62.6" font-family="Times,serif" font-size="14.00">TabsPageRoutingModule</text>
</g>
<!-- TabsPageRoutingModule&#45;&gt;TabsPageModule -->
<g id="edge15" class="edge">
<title>TabsPageRoutingModule&#45;&gt;TabsPageModule</title>
<path fill="none" stroke="black" d="M1876.28,-84.91C1876.28,-84.91 1876.28,-103.79 1876.28,-103.79"/>
<polygon fill="black" stroke="black" points="1872.78,-103.79 1876.28,-113.79 1879.78,-103.79 1872.78,-103.79"/>
</g>
</g>
</svg>
