<?xml version="1.0" encoding="UTF-8" standalone="no"?>
<!DOCTYPE svg PUBLIC "-//W3C//DTD SVG 1.1//EN"
 "http://www.w3.org/Graphics/SVG/1.1/DTD/svg11.dtd">
<!-- Generated by graphviz version 2.47.3 (20210619.1520)
 -->
<!-- Title: dependencies Pages: 1 -->
<svg width="3342pt" height="247pt"
 viewBox="0.00 0.00 3342.00 246.80" xmlns="http://www.w3.org/2000/svg" xmlns:xlink="http://www.w3.org/1999/xlink">
<g id="graph0" class="graph" transform="scale(1 1) rotate(0) translate(4 242.8)">
<title>dependencies</title>
<polygon fill="white" stroke="transparent" points="-4,4 -4,-242.8 3338,-242.8 3338,4 -4,4"/>
<text text-anchor="middle" x="1667" y="-8.2" font-family="sans-serif" font-size="14.00">dependencies</text>
<g id="clust1" class="cluster">
<title>cluster_AppModule</title>
<polygon fill="none" stroke="black" stroke-dasharray="1,5" points="8,-32.8 8,-230.8 298,-230.8 298,-32.8 8,-32.8"/>
</g>
<g id="clust2" class="cluster">
<title>cluster_AppModule_declarations</title>
<polygon fill="none" stroke="black" points="168,-40.8 168,-92.8 290,-92.8 290,-40.8 168,-40.8"/>
</g>
<g id="clust4" class="cluster">
<title>cluster_AppModule_imports</title>
<polygon fill="none" stroke="black" points="16,-40.8 16,-92.8 160,-92.8 160,-40.8 16,-40.8"/>
</g>
<g id="clust6" class="cluster">
<title>cluster_AppModule_bootstrap</title>
<polygon fill="none" stroke="black" points="96,-170.8 96,-222.8 220,-222.8 220,-170.8 96,-170.8"/>
</g>
<g id="clust14" class="cluster">
<title>cluster_ExploreContainerComponentModule</title>
<polygon fill="none" stroke="black" stroke-dasharray="1,5" points="306,-32.8 306,-230.8 546,-230.8 546,-32.8 306,-32.8"/>
</g>
<g id="clust15" class="cluster">
<title>cluster_ExploreContainerComponentModule_declarations</title>
<polygon fill="none" stroke="black" points="328,-40.8 328,-92.8 524,-92.8 524,-40.8 328,-40.8"/>
</g>
<g id="clust18" class="cluster">
<title>cluster_ExploreContainerComponentModule_exports</title>
<polygon fill="none" stroke="black" points="326,-170.8 326,-222.8 526,-222.8 526,-170.8 326,-170.8"/>
</g>
<g id="clust21" class="cluster">
<title>cluster_ForgotPwPageModule</title>
<polygon fill="none" stroke="black" stroke-dasharray="1,5" points="554,-32.8 554,-157.8 896,-157.8 896,-32.8 554,-32.8"/>
</g>
<g id="clust22" class="cluster">
<title>cluster_ForgotPwPageModule_declarations</title>
<polygon fill="none" stroke="black" points="774,-40.8 774,-92.8 888,-92.8 888,-40.8 774,-40.8"/>
</g>
<g id="clust24" class="cluster">
<title>cluster_ForgotPwPageModule_imports</title>
<polygon fill="none" stroke="black" points="562,-40.8 562,-92.8 766,-92.8 766,-40.8 562,-40.8"/>
</g>
<g id="clust34" class="cluster">
<title>cluster_LoginPageModule</title>
<polygon fill="none" stroke="black" stroke-dasharray="1,5" points="904,-32.8 904,-157.8 1202,-157.8 1202,-32.8 904,-32.8"/>
</g>
<g id="clust35" class="cluster">
<title>cluster_LoginPageModule_declarations</title>
<polygon fill="none" stroke="black" points="1102,-40.8 1102,-92.8 1194,-92.8 1194,-40.8 1102,-40.8"/>
</g>
<g id="clust37" class="cluster">
<title>cluster_LoginPageModule_imports</title>
<polygon fill="none" stroke="black" points="912,-40.8 912,-92.8 1094,-92.8 1094,-40.8 912,-40.8"/>
</g>
<g id="clust47" class="cluster">
<title>cluster_NewPwPageModule</title>
<polygon fill="none" stroke="black" stroke-dasharray="1,5" points="1210,-32.8 1210,-157.8 1530,-157.8 1530,-32.8 1210,-32.8"/>
</g>
<g id="clust48" class="cluster">
<title>cluster_NewPwPageModule_declarations</title>
<polygon fill="none" stroke="black" points="1418,-40.8 1418,-92.8 1522,-92.8 1522,-40.8 1418,-40.8"/>
</g>
<g id="clust50" class="cluster">
<title>cluster_NewPwPageModule_imports</title>
<polygon fill="none" stroke="black" points="1218,-40.8 1218,-92.8 1410,-92.8 1410,-40.8 1218,-40.8"/>
</g>
<g id="clust60" class="cluster">
<title>cluster_SignupPageModule</title>
<polygon fill="none" stroke="black" stroke-dasharray="1,5" points="1538,-32.8 1538,-157.8 1848,-157.8 1848,-32.8 1538,-32.8"/>
</g>
<g id="clust61" class="cluster">
<title>cluster_SignupPageModule_declarations</title>
<polygon fill="none" stroke="black" points="1742,-40.8 1742,-92.8 1840,-92.8 1840,-40.8 1742,-40.8"/>
</g>
<g id="clust63" class="cluster">
<title>cluster_SignupPageModule_imports</title>
<polygon fill="none" stroke="black" points="1546,-40.8 1546,-92.8 1734,-92.8 1734,-40.8 1546,-40.8"/>
</g>
<g id="clust73" class="cluster">
<title>cluster_Tab1PageModule</title>
<polygon fill="none" stroke="black" stroke-dasharray="1,5" points="1856,-32.8 1856,-157.8 2144,-157.8 2144,-32.8 1856,-32.8"/>
</g>
<g id="clust74" class="cluster">
<title>cluster_Tab1PageModule_declarations</title>
<polygon fill="none" stroke="black" points="2048,-40.8 2048,-92.8 2136,-92.8 2136,-40.8 2048,-40.8"/>
</g>
<g id="clust76" class="cluster">
<title>cluster_Tab1PageModule_imports</title>
<polygon fill="none" stroke="black" points="1864,-40.8 1864,-92.8 2040,-92.8 2040,-40.8 1864,-40.8"/>
</g>
<g id="clust86" class="cluster">
<title>cluster_Tab2PageModule</title>
<polygon fill="none" stroke="black" stroke-dasharray="1,5" points="2152,-32.8 2152,-157.8 2440,-157.8 2440,-32.8 2152,-32.8"/>
</g>
<g id="clust87" class="cluster">
<title>cluster_Tab2PageModule_declarations</title>
<polygon fill="none" stroke="black" points="2344,-40.8 2344,-92.8 2432,-92.8 2432,-40.8 2344,-40.8"/>
</g>
<g id="clust89" class="cluster">
<title>cluster_Tab2PageModule_imports</title>
<polygon fill="none" stroke="black" points="2160,-40.8 2160,-92.8 2336,-92.8 2336,-40.8 2160,-40.8"/>
</g>
<g id="clust99" class="cluster">
<title>cluster_Tab3PageModule</title>
<polygon fill="none" stroke="black" stroke-dasharray="1,5" points="2448,-32.8 2448,-157.8 2736,-157.8 2736,-32.8 2448,-32.8"/>
</g>
<g id="clust100" class="cluster">
<title>cluster_Tab3PageModule_declarations</title>
<polygon fill="none" stroke="black" points="2640,-40.8 2640,-92.8 2728,-92.8 2728,-40.8 2640,-40.8"/>
</g>
<g id="clust102" class="cluster">
<title>cluster_Tab3PageModule_imports</title>
<polygon fill="none" stroke="black" points="2456,-40.8 2456,-92.8 2632,-92.8 2632,-40.8 2456,-40.8"/>
</g>
<g id="clust112" class="cluster">
<title>cluster_Tab4PageModule</title>
<polygon fill="none" stroke="black" stroke-dasharray="1,5" points="2744,-32.8 2744,-157.8 3032,-157.8 3032,-32.8 2744,-32.8"/>
</g>
<g id="clust113" class="cluster">
<title>cluster_Tab4PageModule_declarations</title>
<polygon fill="none" stroke="black" points="2936,-40.8 2936,-92.8 3024,-92.8 3024,-40.8 2936,-40.8"/>
</g>
<g id="clust115" class="cluster">
<title>cluster_Tab4PageModule_imports</title>
<polygon fill="none" stroke="black" points="2752,-40.8 2752,-92.8 2928,-92.8 2928,-40.8 2752,-40.8"/>
</g>
<g id="clust125" class="cluster">
<title>cluster_TabsPageModule</title>
<polygon fill="none" stroke="black" stroke-dasharray="1,5" points="3040,-32.8 3040,-157.8 3326,-157.8 3326,-32.8 3040,-32.8"/>
</g>
<g id="clust126" class="cluster">
<title>cluster_TabsPageModule_declarations</title>
<polygon fill="none" stroke="black" points="3232,-40.8 3232,-92.8 3318,-92.8 3318,-40.8 3232,-40.8"/>
</g>
<g id="clust128" class="cluster">
<title>cluster_TabsPageModule_imports</title>
<polygon fill="none" stroke="black" points="3048,-40.8 3048,-92.8 3224,-92.8 3224,-40.8 3048,-40.8"/>
</g>
<!-- AppComponent -->
<g id="node1" class="node">
<title>AppComponent</title>
<polygon fill="#ffffb3" stroke="black" points="281.94,-84.8 176.06,-84.8 176.06,-48.8 281.94,-48.8 281.94,-84.8"/>
<text text-anchor="middle" x="229" y="-62.6" font-family="Times,serif" font-size="14.00">AppComponent</text>
</g>
<!-- AppModule -->
<g id="node2" class="node">
<title>AppModule</title>
<polygon fill="#8dd3c7" stroke="black" points="199.66,-149.8 196.66,-153.8 175.66,-153.8 172.66,-149.8 116.34,-149.8 116.34,-113.8 199.66,-113.8 199.66,-149.8"/>
<text text-anchor="middle" x="158" y="-127.6" font-family="Times,serif" font-size="14.00">AppModule</text>
</g>
<!-- AppComponent&#45;&gt;AppModule -->
<g id="edge1" class="edge">
<title>AppComponent&#45;&gt;AppModule</title>
<path fill="none" stroke="black" d="M188.05,-84.91C188.05,-84.91 188.05,-103.79 188.05,-103.79"/>
<polygon fill="black" stroke="black" points="184.55,-103.79 188.05,-113.79 191.55,-103.79 184.55,-103.79"/>
</g>
<!-- AppComponent  -->
<g id="node4" class="node">
<title>AppComponent </title>
<polygon fill="#80b1d3" stroke="black" points="212.44,-214.8 103.56,-214.8 103.56,-178.8 212.44,-178.8 212.44,-214.8"/>
<text text-anchor="middle" x="158" y="-192.6" font-family="Times,serif" font-size="14.00">AppComponent </text>
</g>
<!-- AppModule&#45;&gt;AppComponent  -->
<g id="edge3" class="edge">
<title>AppModule&#45;&gt;AppComponent </title>
<path fill="none" stroke="black" stroke-dasharray="1,5" d="M158,-149.91C158,-149.91 158,-168.79 158,-168.79"/>
<polygon fill="black" stroke="black" points="154.5,-168.79 158,-178.79 161.5,-168.79 154.5,-168.79"/>
</g>
<!-- AppRoutingModule -->
<g id="node3" class="node">
<title>AppRoutingModule</title>
<polygon fill="#8dd3c7" stroke="black" points="152.27,-84.8 149.27,-88.8 128.27,-88.8 125.27,-84.8 23.73,-84.8 23.73,-48.8 152.27,-48.8 152.27,-84.8"/>
<text text-anchor="middle" x="88" y="-62.6" font-family="Times,serif" font-size="14.00">AppRoutingModule</text>
</g>
<!-- AppRoutingModule&#45;&gt;AppModule -->
<g id="edge2" class="edge">
<title>AppRoutingModule&#45;&gt;AppModule</title>
<path fill="none" stroke="black" d="M134.28,-84.91C134.28,-84.91 134.28,-103.79 134.28,-103.79"/>
<polygon fill="black" stroke="black" points="130.78,-103.79 134.28,-113.79 137.78,-103.79 130.78,-103.79"/>
</g>
<!-- ExploreContainerComponent -->
<g id="node5" class="node">
<title>ExploreContainerComponent</title>
<polygon fill="#ffffb3" stroke="black" points="516.36,-84.8 335.64,-84.8 335.64,-48.8 516.36,-48.8 516.36,-84.8"/>
<text text-anchor="middle" x="426" y="-62.6" font-family="Times,serif" font-size="14.00">ExploreContainerComponent</text>
</g>
<!-- ExploreContainerComponentModule -->
<g id="node6" class="node">
<title>ExploreContainerComponentModule</title>
<polygon fill="#8dd3c7" stroke="black" points="538.41,-149.8 535.41,-153.8 514.41,-153.8 511.41,-149.8 313.59,-149.8 313.59,-113.8 538.41,-113.8 538.41,-149.8"/>
<text text-anchor="middle" x="426" y="-127.6" font-family="Times,serif" font-size="14.00">ExploreContainerComponentModule</text>
</g>
<!-- ExploreContainerComponent&#45;&gt;ExploreContainerComponentModule -->
<g id="edge4" class="edge">
<title>ExploreContainerComponent&#45;&gt;ExploreContainerComponentModule</title>
<path fill="none" stroke="black" d="M426,-84.91C426,-84.91 426,-103.79 426,-103.79"/>
<polygon fill="black" stroke="black" points="422.5,-103.79 426,-113.79 429.5,-103.79 422.5,-103.79"/>
</g>
<!-- ExploreContainerComponent  -->
<g id="node7" class="node">
<title>ExploreContainerComponent </title>
<polygon fill="#fb8072" stroke="black" points="518.36,-214.8 333.64,-214.8 333.64,-178.8 518.36,-178.8 518.36,-214.8"/>
<text text-anchor="middle" x="426" y="-192.6" font-family="Times,serif" font-size="14.00">ExploreContainerComponent </text>
</g>
<!-- ExploreContainerComponentModule&#45;&gt;ExploreContainerComponent  -->
<g id="edge5" class="edge">
<title>ExploreContainerComponentModule&#45;&gt;ExploreContainerComponent </title>
<path fill="none" stroke="black" stroke-dasharray="5,2" d="M426,-149.91C426,-149.91 426,-168.79 426,-168.79"/>
<polygon fill="black" stroke="black" points="422.5,-168.79 426,-178.79 429.5,-168.79 422.5,-168.79"/>
</g>
<!-- ForgotPwPage -->
<g id="node8" class="node">
<title>ForgotPwPage</title>
<polygon fill="#ffffb3" stroke="black" points="880.44,-84.8 781.56,-84.8 781.56,-48.8 880.44,-48.8 880.44,-84.8"/>
<text text-anchor="middle" x="831" y="-62.6" font-family="Times,serif" font-size="14.00">ForgotPwPage</text>
</g>
<!-- ForgotPwPageModule -->
<g id="node9" class="node">
<title>ForgotPwPageModule</title>
<polygon fill="#8dd3c7" stroke="black" points="810.98,-149.8 807.98,-153.8 786.98,-153.8 783.98,-149.8 669.02,-149.8 669.02,-113.8 810.98,-113.8 810.98,-149.8"/>
<text text-anchor="middle" x="740" y="-127.6" font-family="Times,serif" font-size="14.00">ForgotPwPageModule</text>
</g>
<!-- ForgotPwPage&#45;&gt;ForgotPwPageModule -->
<g id="edge6" class="edge">
<title>ForgotPwPage&#45;&gt;ForgotPwPageModule</title>
<path fill="none" stroke="black" d="M796.39,-84.91C796.39,-84.91 796.39,-103.79 796.39,-103.79"/>
<polygon fill="black" stroke="black" points="792.89,-103.79 796.39,-113.79 799.89,-103.79 792.89,-103.79"/>
</g>
<!-- ForgotPwPageRoutingModule -->
<g id="node10" class="node">
<title>ForgotPwPageRoutingModule</title>
<polygon fill="#8dd3c7" stroke="black" points="757.6,-84.8 754.6,-88.8 733.6,-88.8 730.6,-84.8 570.4,-84.8 570.4,-48.8 757.6,-48.8 757.6,-84.8"/>
<text text-anchor="middle" x="664" y="-62.6" font-family="Times,serif" font-size="14.00">ForgotPwPageRoutingModule</text>
</g>
<!-- ForgotPwPageRoutingModule&#45;&gt;ForgotPwPageModule -->
<g id="edge7" class="edge">
<title>ForgotPwPageRoutingModule&#45;&gt;ForgotPwPageModule</title>
<path fill="none" stroke="black" d="M713.28,-84.91C713.28,-84.91 713.28,-103.79 713.28,-103.79"/>
<polygon fill="black" stroke="black" points="709.78,-103.79 713.28,-113.79 716.78,-103.79 709.78,-103.79"/>
</g>
<!-- LoginPage -->
<g id="node11" class="node">
<title>LoginPage</title>
<polygon fill="#ffffb3" stroke="black" points="1186.16,-84.8 1109.84,-84.8 1109.84,-48.8 1186.16,-48.8 1186.16,-84.8"/>
<text text-anchor="middle" x="1148" y="-62.6" font-family="Times,serif" font-size="14.00">LoginPage</text>
</g>
<!-- LoginPageModule -->
<g id="node12" class="node">
<title>LoginPageModule</title>
<polygon fill="#8dd3c7" stroke="black" points="1128.2,-149.8 1125.2,-153.8 1104.2,-153.8 1101.2,-149.8 1007.8,-149.8 1007.8,-113.8 1128.2,-113.8 1128.2,-149.8"/>
<text text-anchor="middle" x="1068" y="-127.6" font-family="Times,serif" font-size="14.00">LoginPageModule</text>
</g>
<!-- LoginPage&#45;&gt;LoginPageModule -->
<g id="edge8" class="edge">
<title>LoginPage&#45;&gt;LoginPageModule</title>
<path fill="none" stroke="black" d="M1118.89,-84.91C1118.89,-84.91 1118.89,-103.79 1118.89,-103.79"/>
<polygon fill="black" stroke="black" points="1115.39,-103.79 1118.89,-113.79 1122.39,-103.79 1115.39,-103.79"/>
</g>
<!-- LoginPageRoutingModule -->
<g id="node13" class="node">
<title>LoginPageRoutingModule</title>
<polygon fill="#8dd3c7" stroke="black" points="1085.82,-84.8 1082.82,-88.8 1061.82,-88.8 1058.82,-84.8 920.18,-84.8 920.18,-48.8 1085.82,-48.8 1085.82,-84.8"/>
<text text-anchor="middle" x="1003" y="-62.6" font-family="Times,serif" font-size="14.00">LoginPageRoutingModule</text>
</g>
<!-- LoginPageRoutingModule&#45;&gt;LoginPageModule -->
<g id="edge9" class="edge">
<title>LoginPageRoutingModule&#45;&gt;LoginPageModule</title>
<path fill="none" stroke="black" d="M1046.78,-84.91C1046.78,-84.91 1046.78,-103.79 1046.78,-103.79"/>
<polygon fill="black" stroke="black" points="1043.28,-103.79 1046.78,-113.79 1050.28,-103.79 1043.28,-103.79"/>
</g>
<!-- NewPwPage -->
<g id="node14" class="node">
<title>NewPwPage</title>
<polygon fill="#ffffb3" stroke="black" points="1513.53,-84.8 1426.47,-84.8 1426.47,-48.8 1513.53,-48.8 1513.53,-84.8"/>
<text text-anchor="middle" x="1470" y="-62.6" font-family="Times,serif" font-size="14.00">NewPwPage</text>
</g>
<!-- NewPwPageModule -->
<g id="node15" class="node">
<title>NewPwPageModule</title>
<polygon fill="#8dd3c7" stroke="black" points="1450.58,-149.8 1447.58,-153.8 1426.58,-153.8 1423.58,-149.8 1319.42,-149.8 1319.42,-113.8 1450.58,-113.8 1450.58,-149.8"/>
<text text-anchor="middle" x="1385" y="-127.6" font-family="Times,serif" font-size="14.00">NewPwPageModule</text>
</g>
<!-- NewPwPage&#45;&gt;NewPwPageModule -->
<g id="edge10" class="edge">
<title>NewPwPage&#45;&gt;NewPwPageModule</title>
<path fill="none" stroke="black" d="M1438.39,-84.91C1438.39,-84.91 1438.39,-103.79 1438.39,-103.79"/>
<polygon fill="black" stroke="black" points="1434.89,-103.79 1438.39,-113.79 1441.89,-103.79 1434.89,-103.79"/>
</g>
<!-- NewPwPageRoutingModule -->
<g id="node16" class="node">
<title>NewPwPageRoutingModule</title>
<polygon fill="#8dd3c7" stroke="black" points="1402.2,-84.8 1399.2,-88.8 1378.2,-88.8 1375.2,-84.8 1225.8,-84.8 1225.8,-48.8 1402.2,-48.8 1402.2,-84.8"/>
<text text-anchor="middle" x="1314" y="-62.6" font-family="Times,serif" font-size="14.00">NewPwPageRoutingModule</text>
</g>
<!-- NewPwPageRoutingModule&#45;&gt;NewPwPageModule -->
<g id="edge11" class="edge">
<title>NewPwPageRoutingModule&#45;&gt;NewPwPageModule</title>
<path fill="none" stroke="black" d="M1360.78,-84.91C1360.78,-84.91 1360.78,-103.79 1360.78,-103.79"/>
<polygon fill="black" stroke="black" points="1357.28,-103.79 1360.78,-113.79 1364.28,-103.79 1357.28,-103.79"/>
</g>
<!-- SignupPage -->
<g id="node17" class="node">
<title>SignupPage</title>
<polygon fill="#ffffb3" stroke="black" points="1832.39,-84.8 1749.61,-84.8 1749.61,-48.8 1832.39,-48.8 1832.39,-84.8"/>
<text text-anchor="middle" x="1791" y="-62.6" font-family="Times,serif" font-size="14.00">SignupPage</text>
</g>
<!-- SignupPageModule -->
<g id="node18" class="node">
<title>SignupPageModule</title>
<polygon fill="#8dd3c7" stroke="black" points="1771.44,-149.8 1768.44,-153.8 1747.44,-153.8 1744.44,-149.8 1644.56,-149.8 1644.56,-113.8 1771.44,-113.8 1771.44,-149.8"/>
<text text-anchor="middle" x="1708" y="-127.6" font-family="Times,serif" font-size="14.00">SignupPageModule</text>
</g>
<!-- SignupPage&#45;&gt;SignupPageModule -->
<g id="edge12" class="edge">
<title>SignupPage&#45;&gt;SignupPageModule</title>
<path fill="none" stroke="black" d="M1760.39,-84.91C1760.39,-84.91 1760.39,-103.79 1760.39,-103.79"/>
<polygon fill="black" stroke="black" points="1756.89,-103.79 1760.39,-113.79 1763.89,-103.79 1756.89,-103.79"/>
</g>
<!-- SignupPageRoutingModule -->
<g id="node19" class="node">
<title>SignupPageRoutingModule</title>
<polygon fill="#8dd3c7" stroke="black" points="1725.55,-84.8 1722.55,-88.8 1701.55,-88.8 1698.55,-84.8 1554.45,-84.8 1554.45,-48.8 1725.55,-48.8 1725.55,-84.8"/>
<text text-anchor="middle" x="1640" y="-62.6" font-family="Times,serif" font-size="14.00">SignupPageRoutingModule</text>
</g>
<!-- SignupPageRoutingModule&#45;&gt;SignupPageModule -->
<g id="edge13" class="edge">
<title>SignupPageRoutingModule&#45;&gt;SignupPageModule</title>
<path fill="none" stroke="black" d="M1685.28,-84.91C1685.28,-84.91 1685.28,-103.79 1685.28,-103.79"/>
<polygon fill="black" stroke="black" points="1681.78,-103.79 1685.28,-113.79 1688.78,-103.79 1681.78,-103.79"/>
</g>
<!-- Tab1Page -->
<g id="node20" class="node">
<title>Tab1Page</title>
<polygon fill="#ffffb3" stroke="black" points="2127.98,-84.8 2056.02,-84.8 2056.02,-48.8 2127.98,-48.8 2127.98,-84.8"/>
<text text-anchor="middle" x="2092" y="-62.6" font-family="Times,serif" font-size="14.00">Tab1Page</text>
</g>
<!-- Tab1PageModule -->
<g id="node21" class="node">
<title>Tab1PageModule</title>
<polygon fill="#8dd3c7" stroke="black" points="2072.53,-149.8 2069.53,-153.8 2048.53,-153.8 2045.53,-149.8 1957.47,-149.8 1957.47,-113.8 2072.53,-113.8 2072.53,-149.8"/>
<text text-anchor="middle" x="2015" y="-127.6" font-family="Times,serif" font-size="14.00">Tab1PageModule</text>
</g>
<!-- Tab1Page&#45;&gt;Tab1PageModule -->
<g id="edge14" class="edge">
<title>Tab1Page&#45;&gt;Tab1PageModule</title>
<path fill="none" stroke="black" d="M2064.39,-84.91C2064.39,-84.91 2064.39,-103.79 2064.39,-103.79"/>
<polygon fill="black" stroke="black" points="2060.89,-103.79 2064.39,-113.79 2067.89,-103.79 2060.89,-103.79"/>
</g>
<!-- Tab1PageRoutingModule -->
<g id="node22" class="node">
<title>Tab1PageRoutingModule</title>
<polygon fill="#8dd3c7" stroke="black" points="2032.15,-84.8 2029.15,-88.8 2008.15,-88.8 2005.15,-84.8 1871.85,-84.8 1871.85,-48.8 2032.15,-48.8 2032.15,-84.8"/>
<text text-anchor="middle" x="1952" y="-62.6" font-family="Times,serif" font-size="14.00">Tab1PageRoutingModule</text>
</g>
<!-- Tab1PageRoutingModule&#45;&gt;Tab1PageModule -->
<g id="edge15" class="edge">
<title>Tab1PageRoutingModule&#45;&gt;Tab1PageModule</title>
<path fill="none" stroke="black" d="M1994.78,-84.91C1994.78,-84.91 1994.78,-103.79 1994.78,-103.79"/>
<polygon fill="black" stroke="black" points="1991.28,-103.79 1994.78,-113.79 1998.28,-103.79 1991.28,-103.79"/>
</g>
<!-- Tab2Page -->
<g id="node23" class="node">
<title>Tab2Page</title>
<polygon fill="#ffffb3" stroke="black" points="2423.98,-84.8 2352.02,-84.8 2352.02,-48.8 2423.98,-48.8 2423.98,-84.8"/>
<text text-anchor="middle" x="2388" y="-62.6" font-family="Times,serif" font-size="14.00">Tab2Page</text>
</g>
<!-- Tab2PageModule -->
<g id="node24" class="node">
<title>Tab2PageModule</title>
<polygon fill="#8dd3c7" stroke="black" points="2368.53,-149.8 2365.53,-153.8 2344.53,-153.8 2341.53,-149.8 2253.47,-149.8 2253.47,-113.8 2368.53,-113.8 2368.53,-149.8"/>
<text text-anchor="middle" x="2311" y="-127.6" font-family="Times,serif" font-size="14.00">Tab2PageModule</text>
</g>
<!-- Tab2Page&#45;&gt;Tab2PageModule -->
<g id="edge16" class="edge">
<title>Tab2Page&#45;&gt;Tab2PageModule</title>
<path fill="none" stroke="black" d="M2360.39,-84.91C2360.39,-84.91 2360.39,-103.79 2360.39,-103.79"/>
<polygon fill="black" stroke="black" points="2356.89,-103.79 2360.39,-113.79 2363.89,-103.79 2356.89,-103.79"/>
</g>
<!-- Tab2PageRoutingModule -->
<g id="node25" class="node">
<title>Tab2PageRoutingModule</title>
<polygon fill="#8dd3c7" stroke="black" points="2328.15,-84.8 2325.15,-88.8 2304.15,-88.8 2301.15,-84.8 2167.85,-84.8 2167.85,-48.8 2328.15,-48.8 2328.15,-84.8"/>
<text text-anchor="middle" x="2248" y="-62.6" font-family="Times,serif" font-size="14.00">Tab2PageRoutingModule</text>
</g>
<!-- Tab2PageRoutingModule&#45;&gt;Tab2PageModule -->
<g id="edge17" class="edge">
<title>Tab2PageRoutingModule&#45;&gt;Tab2PageModule</title>
<path fill="none" stroke="black" d="M2290.78,-84.91C2290.78,-84.91 2290.78,-103.79 2290.78,-103.79"/>
<polygon fill="black" stroke="black" points="2287.28,-103.79 2290.78,-113.79 2294.28,-103.79 2287.28,-103.79"/>
</g>
<!-- Tab3Page -->
<g id="node26" class="node">
<title>Tab3Page</title>
<polygon fill="#ffffb3" stroke="black" points="2719.98,-84.8 2648.02,-84.8 2648.02,-48.8 2719.98,-48.8 2719.98,-84.8"/>
<text text-anchor="middle" x="2684" y="-62.6" font-family="Times,serif" font-size="14.00">Tab3Page</text>
</g>
<!-- Tab3PageModule -->
<g id="node27" class="node">
<title>Tab3PageModule</title>
<polygon fill="#8dd3c7" stroke="black" points="2664.53,-149.8 2661.53,-153.8 2640.53,-153.8 2637.53,-149.8 2549.47,-149.8 2549.47,-113.8 2664.53,-113.8 2664.53,-149.8"/>
<text text-anchor="middle" x="2607" y="-127.6" font-family="Times,serif" font-size="14.00">Tab3PageModule</text>
</g>
<!-- Tab3Page&#45;&gt;Tab3PageModule -->
<g id="edge18" class="edge">
<title>Tab3Page&#45;&gt;Tab3PageModule</title>
<path fill="none" stroke="black" d="M2656.39,-84.91C2656.39,-84.91 2656.39,-103.79 2656.39,-103.79"/>
<polygon fill="black" stroke="black" points="2652.89,-103.79 2656.39,-113.79 2659.89,-103.79 2652.89,-103.79"/>
</g>
<!-- Tab3PageRoutingModule -->
<g id="node28" class="node">
<title>Tab3PageRoutingModule</title>
<polygon fill="#8dd3c7" stroke="black" points="2624.15,-84.8 2621.15,-88.8 2600.15,-88.8 2597.15,-84.8 2463.85,-84.8 2463.85,-48.8 2624.15,-48.8 2624.15,-84.8"/>
<text text-anchor="middle" x="2544" y="-62.6" font-family="Times,serif" font-size="14.00">Tab3PageRoutingModule</text>
</g>
<!-- Tab3PageRoutingModule&#45;&gt;Tab3PageModule -->
<g id="edge19" class="edge">
<title>Tab3PageRoutingModule&#45;&gt;Tab3PageModule</title>
<path fill="none" stroke="black" d="M2586.78,-84.91C2586.78,-84.91 2586.78,-103.79 2586.78,-103.79"/>
<polygon fill="black" stroke="black" points="2583.28,-103.79 2586.78,-113.79 2590.28,-103.79 2583.28,-103.79"/>
</g>
<!-- Tab4Page -->
<g id="node29" class="node">
<title>Tab4Page</title>
<polygon fill="#ffffb3" stroke="black" points="3015.98,-84.8 2944.02,-84.8 2944.02,-48.8 3015.98,-48.8 3015.98,-84.8"/>
<text text-anchor="middle" x="2980" y="-62.6" font-family="Times,serif" font-size="14.00">Tab4Page</text>
</g>
<!-- Tab4PageModule -->
<g id="node30" class="node">
<title>Tab4PageModule</title>
<polygon fill="#8dd3c7" stroke="black" points="2960.53,-149.8 2957.53,-153.8 2936.53,-153.8 2933.53,-149.8 2845.47,-149.8 2845.47,-113.8 2960.53,-113.8 2960.53,-149.8"/>
<text text-anchor="middle" x="2903" y="-127.6" font-family="Times,serif" font-size="14.00">Tab4PageModule</text>
</g>
<!-- Tab4Page&#45;&gt;Tab4PageModule -->
<g id="edge20" class="edge">
<title>Tab4Page&#45;&gt;Tab4PageModule</title>
<path fill="none" stroke="black" d="M2952.39,-84.91C2952.39,-84.91 2952.39,-103.79 2952.39,-103.79"/>
<polygon fill="black" stroke="black" points="2948.89,-103.79 2952.39,-113.79 2955.89,-103.79 2948.89,-103.79"/>
</g>
<!-- Tab4PageRoutingModule -->
<g id="node31" class="node">
<title>Tab4PageRoutingModule</title>
<polygon fill="#8dd3c7" stroke="black" points="2920.15,-84.8 2917.15,-88.8 2896.15,-88.8 2893.15,-84.8 2759.85,-84.8 2759.85,-48.8 2920.15,-48.8 2920.15,-84.8"/>
<text text-anchor="middle" x="2840" y="-62.6" font-family="Times,serif" font-size="14.00">Tab4PageRoutingModule</text>
</g>
<!-- Tab4PageRoutingModule&#45;&gt;Tab4PageModule -->
<g id="edge21" class="edge">
<title>Tab4PageRoutingModule&#45;&gt;Tab4PageModule</title>
<path fill="none" stroke="black" d="M2882.78,-84.91C2882.78,-84.91 2882.78,-103.79 2882.78,-103.79"/>
<polygon fill="black" stroke="black" points="2879.28,-103.79 2882.78,-113.79 2886.28,-103.79 2879.28,-103.79"/>
</g>
<!-- TabsPage -->
<g id="node32" class="node">
<title>TabsPage</title>
<polygon fill="#ffffb3" stroke="black" points="3310.42,-84.8 3239.58,-84.8 3239.58,-48.8 3310.42,-48.8 3310.42,-84.8"/>
<text text-anchor="middle" x="3275" y="-62.6" font-family="Times,serif" font-size="14.00">TabsPage</text>
</g>
<!-- TabsPageModule -->
<g id="node33" class="node">
<title>TabsPageModule</title>
<polygon fill="#8dd3c7" stroke="black" points="3254.97,-149.8 3251.97,-153.8 3230.97,-153.8 3227.97,-149.8 3141.03,-149.8 3141.03,-113.8 3254.97,-113.8 3254.97,-149.8"/>
<text text-anchor="middle" x="3198" y="-127.6" font-family="Times,serif" font-size="14.00">TabsPageModule</text>
</g>
<!-- TabsPage&#45;&gt;TabsPageModule -->
<g id="edge22" class="edge">
<title>TabsPage&#45;&gt;TabsPageModule</title>
<path fill="none" stroke="black" d="M3247.39,-84.91C3247.39,-84.91 3247.39,-103.79 3247.39,-103.79"/>
<polygon fill="black" stroke="black" points="3243.89,-103.79 3247.39,-113.79 3250.89,-103.79 3243.89,-103.79"/>
</g>
<!-- TabsPageRoutingModule -->
<g id="node34" class="node">
<title>TabsPageRoutingModule</title>
<polygon fill="#8dd3c7" stroke="black" points="3215.59,-84.8 3212.59,-88.8 3191.59,-88.8 3188.59,-84.8 3056.41,-84.8 3056.41,-48.8 3215.59,-48.8 3215.59,-84.8"/>
<text text-anchor="middle" x="3136" y="-62.6" font-family="Times,serif" font-size="14.00">TabsPageRoutingModule</text>
</g>
<!-- TabsPageRoutingModule&#45;&gt;TabsPageModule -->
<g id="edge23" class="edge">
<title>TabsPageRoutingModule&#45;&gt;TabsPageModule</title>
<path fill="none" stroke="black" d="M3178.28,-84.91C3178.28,-84.91 3178.28,-103.79 3178.28,-103.79"/>
<polygon fill="black" stroke="black" points="3174.78,-103.79 3178.28,-113.79 3181.78,-103.79 3174.78,-103.79"/>
</g>
</g>
</svg>
